<svg width="600" height="400" viewBox="0 0 600 400" xmlns="http://www.w3.org/2000/svg">
  <defs>
    <!-- Purple accent gradient -->
    <linearGradient id="purpleGradient" x1="0%" y1="0%" x2="100%" y2="100%">
      <stop offset="0%" style="stop-color:#483AA0;stop-opacity:0.8" />
      <stop offset="100%" style="stop-color:#483AA0;stop-opacity:0.6" />
    </linearGradient>
    
    <!-- Light glow -->
    <radialGradient id="glowGradient" cx="50%" cy="50%" r="50%">
      <stop offset="0%" style="stop-color:#483AA0;stop-opacity:0.4" />
      <stop offset="100%" style="stop-color:#483AA0;stop-opacity:0" />
    </radialGradient>
  </defs>
  
  <!-- Glow effects -->
  <circle cx="450" cy="120" r="150" fill="url(#glowGradient)"/>
  <circle cx="150" cy="320" r="120" fill="url(#glowGradient)"/>
  
  <!-- Abstract mobile device representation -->
  <g transform="translate(300, 200)">
    <!-- Phone outline -->
    <rect x="-80" y="-140" width="160" height="280" rx="20" 
          fill="none" stroke="url(#purpleGradient)" stroke-width="3" opacity="0.6"/>
    
    <!-- Screen glow -->
    <rect x="-70" y="-120" width="140" height="220" rx="15" 
          fill="url(#glowGradient)"/>
    
    <!-- Inner screen -->
    <rect x="-70" y="-120" width="140" height="220" rx="15" 
          fill="none" stroke="#483AA0" stroke-width="2" opacity="0.8"/>
    
    <!-- App elements representation -->
    <circle cx="0" cy="-60" r="25" fill="#483AA0" opacity="0.5"/>
    <rect x="-50" y="-10" width="100" height="8" rx="4" fill="#483AA0" opacity="0.6"/>
    <rect x="-50" y="10" width="80" height="8" rx="4" fill="#483AA0" opacity="0.4"/>
    <rect x="-50" y="30" width="60" height="8" rx="4" fill="#483AA0" opacity="0.3"/>
    
    <!-- Bottom indicator -->
    <rect x="-30" y="130" width="60" height="4" rx="2" fill="#483AA0" opacity="0.7"/>
  </g>
  
  <!-- Floating geometric elements -->
  <circle cx="480" cy="80" r="4" fill="#483AA0" opacity="0.8">
    <animate attributeName="cy" values="80;70;80" dur="3s" repeatCount="indefinite"/>
  </circle>
  
  <circle cx="520" cy="150" r="3" fill="#483AA0" opacity="0.6">
    <animate attributeName="cy" values="150;145;150" dur="4s" repeatCount="indefinite"/>
  </circle>
  
  <rect x="100" y="60" width="6" height="6" rx="1" fill="#483AA0" opacity="0.5">
    <animate attributeName="y" values="60;55;60" dur="3.5s" repeatCount="indefinite"/>
  </rect>
  
  <circle cx="520" cy="320" r="5" fill="#483AA0" opacity="0.7">
    <animate attributeName="cy" values="320;315;320" dur="3.2s" repeatCount="indefinite"/>
  </circle>
  
  <!-- Curved lines for tech aesthetic -->
  <path d="M 50 100 Q 200 120 350 100" 
        stroke="#483AA0" stroke-width="2" fill="none" opacity="0.3"/>
  
  <path d="M 550 250 Q 400 270 250 250" 
        stroke="#483AA0" stroke-width="2" fill="none" opacity="0.4"/>
  
  <!-- Code brackets decoration -->
  <text x="480" y="360" font-family="monospace" font-size="48" fill="#483AA0" opacity="0.3">&lt;/&gt;</text>
  
</svg>